<?xml version="1.0" standalone="no"?>
<!DOCTYPE svg PUBLIC "-//W3C//DTD SVG 20010904//EN"
 "http://www.w3.org/TR/2001/REC-SVG-20010904/DTD/svg10.dtd">
<svg version="1.0" xmlns="http://www.w3.org/2000/svg"
 width="752.000000pt" height="208.000000pt" viewBox="0 0 752.000000 208.000000"
 preserveAspectRatio="xMidYMid meet">

<g transform="translate(0.000000,208.000000) scale(0.100000,-0.100000)"
fill="#000000" stroke="none">
<path d="M2 1043 l-2 -1043 3760 0 3760 0 0 1040 0 1040 -3292 0 -3293 0 -2
-88 c-1 -48 -2 -93 -3 -99 0 -10 -75 -13 -340 -13 l-340 0 0 -155 0 -155 303
-2 302 -3 3 -102 3 -103 -306 0 -305 0 0 -165 0 -165 355 0 355 0 0 -105 0
-105 -475 0 -475 0 -3 633 c-1 435 -3 308 -5 -410z m6138 600 c0 -7 -3 -13 -7
-13 -5 0 -42 -29 -83 -65 l-75 -64 -67 -1 c-37 0 -69 3 -72 8 -2 4 20 37 49
72 59 72 68 76 183 76 52 0 72 -4 72 -13z m-34 -209 c63 -31 127 -97 157 -162
33 -72 31 -198 -4 -272 -64 -135 -201 -207 -369 -193 -95 7 -162 36 -223 96
-79 78 -92 111 -92 237 0 96 2 109 27 152 45 76 76 106 141 138 110 54 258 55
363 4z m-3821 2 c55 -30 105 -73 105 -91 0 -11 -111 -116 -131 -123 -4 -2 -18
6 -30 17 -106 98 -250 41 -249 -99 1 -61 27 -111 70 -132 55 -28 100 -23 159
17 l52 36 64 -57 c36 -32 65 -63 65 -69 0 -19 -73 -82 -115 -100 -56 -24 -173
-36 -241 -25 -129 21 -229 103 -263 215 -58 187 13 349 186 421 52 22 69 24
168 21 97 -3 116 -6 160 -31z m617 0 c67 -33 131 -98 161 -164 33 -72 31 -198
-4 -272 -44 -90 -130 -162 -224 -184 -62 -15 -202 -7 -262 16 -66 24 -147 99
-178 163 -30 62 -33 208 -6 270 41 93 97 145 199 186 38 16 67 19 152 16 91
-3 113 -7 162 -31z m-1662 -206 l0 -229 142 -3 143 -3 3 -45 c2 -25 0 -64 -3
-87 l-6 -43 -250 0 -249 0 -1 83 c-1 69 0 547 1 555 0 1 50 2 110 2 l110 0 0
-230z m2318 209 c110 -37 162 -110 162 -227 0 -69 -24 -124 -72 -166 l-40 -36
30 -37 c16 -21 35 -49 42 -62 7 -14 21 -34 31 -45 38 -41 27 -46 -98 -46
l-118 0 -48 74 c-34 52 -55 75 -73 79 -30 5 -36 -14 -32 -93 l3 -55 -112 -3
-113 -3 0 321 0 320 188 0 c164 0 196 -3 250 -21z m619 6 c113 -33 177 -118
176 -230 -1 -72 -19 -118 -67 -164 -20 -19 -36 -39 -36 -43 0 -11 82 -128 89
-128 6 0 51 99 171 380 39 91 74 172 79 180 6 12 33 16 118 18 l110 3 30 -68
c58 -128 136 -306 169 -382 10 -25 29 -65 41 -90 l21 -46 1 293 1 292 110 0
110 0 0 -230 0 -229 143 -3 142 -3 3 -88 3 -87 -367 2 -367 3 -17 50 -17 50
-115 3 -115 3 -20 -53 -20 -53 -211 -3 -211 -2 -47 67 c-58 84 -54 79 -81 87
-21 7 -22 4 -25 -71 l-3 -78 -112 -3 -113 -3 0 314 c0 173 3 317 7 320 3 4 88
7 188 7 132 0 195 -4 232 -15z m2419 -102 c54 -65 107 -127 116 -137 17 -19
18 -14 18 117 l0 137 104 0 103 0 7 -77 c8 -98 8 -388 0 -487 l-7 -77 -90 3
-91 3 -113 133 -113 133 0 -136 0 -136 -107 3 -108 3 -3 305 c-1 168 0 310 3
317 3 9 31 13 93 13 l89 0 99 -117z"/>
<path d="M5863 1270 c-18 -10 -40 -34 -49 -52 -23 -44 -24 -127 -1 -162 60
-91 198 -83 233 15 51 140 -68 269 -183 199z"/>
<path d="M2663 1270 c-43 -26 -67 -74 -67 -136 0 -89 65 -152 147 -141 51 7
84 30 102 73 57 137 -66 275 -182 204z"/>
<path d="M3345 1267 c-4 -14 -4 -43 -1 -64 3 -21 5 -41 6 -45 0 -5 24 -8 53
-8 64 0 87 19 87 71 0 42 -17 54 -87 64 -50 6 -52 6 -58 -18z"/>
<path d="M3980 1220 l0 -70 43 0 c63 0 84 9 97 40 10 24 9 34 -6 58 -17 30
-47 42 -105 42 l-29 0 0 -70z"/>
<path d="M4685 1168 c-10 -29 -20 -59 -23 -65 -3 -9 9 -13 42 -13 25 0 46 4
46 8 0 13 -32 106 -39 115 -4 4 -15 -17 -26 -45z"/>
</g>
</svg>
